<svg width="120" height="120" viewBox="0 0 120 120" fill="none" xmlns="http://www.w3.org/2000/svg">
<path d="M64.1041 47.1792H33.3342C32.2718 47.1792 31.4111 48.0401 31.4111 49.1022C31.4111 50.1647 32.272 51.0253 33.3342 51.0253H64.1041C65.1665 51.0253 66.0272 50.1644 66.0272 49.1022C66.0272 48.0401 65.1663 47.1792 64.1041 47.1792Z" fill="#0C93F4"/>
<path d="M82.0532 47.1792H76.9249C75.8625 47.1792 75.0018 48.0401 75.0018 49.1022C75.0018 50.1647 75.8627 51.0253 76.9249 51.0253H82.0532C83.1157 51.0253 83.9763 50.1644 83.9763 49.1022C83.9763 48.0398 83.1154 47.1792 82.0532 47.1792Z" fill="#0C93F4"/>
<path d="M119.106 62.0133C118.051 60.3511 116.246 59.3587 114.278 59.3587H108.977V38.9726C108.977 36.0748 106.619 33.7174 103.722 33.7174H98.7204V30.2112C98.7204 26.4888 95.692 23.4607 91.9699 23.4607H40.0116C37.8122 23.4607 35.835 22.2387 34.8513 20.2713L33.9752 18.5189C32.3358 15.2405 29.0405 13.2037 25.3751 13.2037H9.6157C4.31344 13.204 0 17.5176 0 22.8194C0 22.8194 0.0229687 101.817 0.0621094 101.896C0.17625 102.681 0.453047 103.446 0.894609 104.141C1.9493 105.803 3.75422 106.796 5.72273 106.796H97.3364C99.5407 106.796 101.572 105.507 102.51 103.513L119.452 67.5119C120.29 65.7309 120.161 63.6752 119.106 62.0133ZM3.84633 22.8194C3.84633 19.6383 6.4343 17.0503 9.61547 17.0503H25.3748C27.5742 17.0503 29.5514 18.2723 30.5351 20.2397L31.4112 21.9921C33.0504 25.2705 36.3459 27.3073 40.0113 27.3073H91.9697C93.5709 27.3073 94.8738 28.6101 94.8738 30.2114V33.7176H17.3341C13.4316 33.7176 10.2565 36.8925 10.2565 40.7953V78.0143L3.84609 91.6364L3.84633 22.8194ZM115.943 65.9344L99.0302 101.875C98.723 102.528 98.0583 102.949 97.3366 102.949H5.78883C5.13141 102.949 4.49695 102.638 4.14375 102.083C3.79172 101.53 3.75023 100.873 4.02891 100.28L20.9702 64.2797C21.2775 63.6269 21.9427 63.2051 22.6641 63.2051H40.0772C41.1391 63.2051 42.0002 62.344 42.0002 61.282C42.0002 60.2198 41.1391 59.359 40.0772 59.359H22.6641C20.4492 59.359 18.4334 60.6382 17.4902 62.6423L14.1028 69.8402V40.7948C14.1028 39.0105 15.5496 37.5635 17.3341 37.5635H103.721C104.5 37.5635 105.131 38.1942 105.131 38.9726V59.359H48.5571C47.4949 59.359 46.6341 60.2201 46.6341 61.282C46.6341 62.344 47.4952 63.2051 48.5571 63.2051H114.278C114.933 63.2051 115.51 63.5226 115.86 64.0767C116.212 64.6326 116.224 65.3395 115.943 65.9344Z" fill="#2D2E2E"/>
</svg>
