<svg width="62" height="62" viewBox="0 0 62 62" fill="none" xmlns="http://www.w3.org/2000/svg">
<g clip-path="url(#clip0_87_591)">
<path d="M4.82227 8.42188H7.51345C8.01502 8.42188 8.42166 8.01524 8.42166 7.51367C8.42166 7.0121 8.01502 6.60547 7.51345 6.60547H4.82227C4.3207 6.60547 3.91406 7.0121 3.91406 7.51367C3.91406 8.01524 4.3207 8.42188 4.82227 8.42188Z" fill="#2D2E2E"/>
<path d="M4.82227 16.251H13.8743C14.3758 16.251 14.7825 15.8443 14.7825 15.3428C14.7825 14.8412 14.3758 14.4346 13.8743 14.4346H4.82227C4.3207 14.4346 3.91406 14.8412 3.91406 15.3428C3.91406 15.8443 4.3207 16.251 4.82227 16.251Z" fill="#2D2E2E"/>
<path d="M4.82227 12.3369H13.8743C14.3758 12.3369 14.7825 11.9303 14.7825 11.4287C14.7825 10.9271 14.3758 10.5205 13.8743 10.5205H4.82227C4.3207 10.5205 3.91406 10.9271 3.91406 11.4287C3.91406 11.9303 4.3207 12.3369 4.82227 12.3369Z" fill="#2D2E2E"/>
<path d="M26.4736 8.42188H29.1648C29.6664 8.42188 30.073 8.01524 30.073 7.51367C30.073 7.0121 29.6664 6.60547 29.1648 6.60547H26.4736C25.9721 6.60547 25.5654 7.0121 25.5654 7.51367C25.5654 8.01524 25.9721 8.42188 26.4736 8.42188Z" fill="#2D2E2E"/>
<path d="M36.4338 15.3428C36.4338 14.8412 36.0272 14.4346 35.5256 14.4346H26.4736C25.9721 14.4346 25.5654 14.8412 25.5654 15.3428C25.5654 15.8443 25.9721 16.251 26.4736 16.251H35.5256C36.0272 16.251 36.4338 15.8443 36.4338 15.3428Z" fill="#2D2E2E"/>
<path d="M26.4736 12.3369H35.5256C36.0272 12.3369 36.4338 11.9303 36.4338 11.4287C36.4338 10.9271 36.0272 10.5205 35.5256 10.5205H26.4736C25.9721 10.5205 25.5654 10.9271 25.5654 11.4287C25.5654 11.9303 25.9721 12.3369 26.4736 12.3369Z" fill="#2D2E2E"/>
<path d="M61.3755 6.51327L55.4867 0.62448C55.09 0.227535 54.5407 0 53.98 0H45.4344C44.2592 0 43.3031 0.956156 43.3031 2.13125V7.51399C43.3031 8.01556 43.7098 8.42219 44.2113 8.42219C44.7129 8.42219 45.1195 8.01556 45.1195 7.51399V2.13125C45.1195 1.9576 45.2608 1.81641 45.4344 1.81641H53.578V6.2907C53.578 7.46604 54.5342 8.42219 55.7095 8.42219H60.1836V20.4806C60.1836 20.6542 60.0423 20.7954 59.8687 20.7954H45.4344C45.2607 20.7954 45.1195 20.6541 45.1195 20.4806V11.7643C45.1195 11.2627 44.7129 10.8561 44.2113 10.8561C43.7098 10.8561 43.3031 11.2627 43.3031 11.7643V20.4805C43.3031 21.6557 44.2593 22.6117 45.4344 22.6117H51.7432V26.9113H31.9082V22.6117H38.2172C39.3925 22.6117 40.3487 21.6556 40.3487 20.4802V8.02064C40.3487 7.45138 40.127 6.91615 39.7244 6.51351L33.8354 0.62448C33.4329 0.221965 32.8975 0.000242188 32.3283 0.000242188H23.7828C22.6075 0.000242188 21.6513 0.956398 21.6513 2.13173V20.4803C21.6513 21.6557 22.6075 22.6118 23.7828 22.6118H30.0918V26.9114H10.2568V22.6118H16.5656C17.7408 22.6118 18.6969 21.6557 18.6969 20.4806V8.02004C18.6969 7.45114 18.4752 6.91603 18.0724 6.51327L12.1836 0.62448C11.7868 0.227535 11.2376 0 10.6768 0H2.13125C0.956156 0 0 0.956156 0 2.13125V11.4283C0 11.9299 0.406633 12.3365 0.908203 12.3365C1.40977 12.3365 1.81641 11.9299 1.81641 11.4283V2.13125C1.81641 1.9576 1.95772 1.81641 2.13125 1.81641H10.2752V6.2907C10.2752 7.46604 11.2313 8.42219 12.4067 8.42219H16.8805V20.4806C16.8805 20.6542 16.7392 20.7954 16.5656 20.7954H2.13125C1.9576 20.7954 1.81641 20.6541 1.81641 20.4806V15.6787C1.81641 15.1772 1.40977 14.7705 0.908203 14.7705C0.406633 14.7705 0 15.1772 0 15.6787V20.4806C0 21.6558 0.956156 22.6118 2.13125 22.6118H8.44036V27.8196C8.44036 28.3212 8.84699 28.7278 9.34856 28.7278H30.0918V33.9356C30.0918 34.4371 30.4984 34.8438 31 34.8438C31.5016 34.8438 31.9082 34.4371 31.9082 33.9356V28.7278H52.6514C53.153 28.7278 53.5596 28.3212 53.5596 27.8196V22.6118H59.8687C61.044 22.6118 62 21.6557 62 20.4806V8.02004C62 7.45114 61.7783 6.91603 61.3755 6.51327ZM37.2478 6.60578H34.0581C33.8843 6.60578 33.743 6.46447 33.743 6.2907V3.10097L37.2478 6.60578ZM23.4678 20.4803V2.13173C23.4678 1.95796 23.6092 1.81665 23.7829 1.81665H31.9267V6.2907C31.9267 7.46604 32.8829 8.42219 34.0582 8.42219H38.5323V20.4803C38.5323 20.6541 38.391 20.7954 38.2172 20.7954H23.7828C23.6092 20.7953 23.4678 20.654 23.4678 20.4803ZM12.0917 6.2907V3.10121L15.5963 6.60578H12.4068C12.233 6.60578 12.0917 6.46435 12.0917 6.2907ZM55.3945 6.2907V3.10097L58.8993 6.60578H55.7095C55.5358 6.60578 55.3945 6.46435 55.3945 6.2907Z" fill="#2D2E2E"/>
<path d="M48.125 8.42188H50.8162C51.3178 8.42188 51.7244 8.01524 51.7244 7.51367C51.7244 7.0121 51.3178 6.60547 50.8162 6.60547H48.125C47.6234 6.60547 47.2168 7.0121 47.2168 7.51367C47.2168 8.01524 47.6234 8.42188 48.125 8.42188Z" fill="#2D2E2E"/>
<path d="M48.125 16.251H57.177C57.6786 16.251 58.0852 15.8443 58.0852 15.3428C58.0852 14.8412 57.6786 14.4346 57.177 14.4346H48.125C47.6234 14.4346 47.2168 14.8412 47.2168 15.3428C47.2168 15.8443 47.6234 16.251 48.125 16.251Z" fill="#2D2E2E"/>
<path d="M48.125 12.3369H57.177C57.6786 12.3369 58.0852 11.9303 58.0852 11.4287C58.0852 10.9271 57.6786 10.5205 57.177 10.5205H48.125C47.6234 10.5205 47.2168 10.9271 47.2168 11.4287C47.2168 11.9303 47.6234 12.3369 48.125 12.3369Z" fill="#2D2E2E"/>
<path d="M42.4989 40.6113H31.7476L30.1431 38.0441C29.616 37.2008 28.7077 36.6974 27.7133 36.6974H20.7247C19.5494 36.6974 18.5932 37.6535 18.5932 38.8289V40.7596C17.457 41.1403 16.6357 42.2144 16.6357 43.4777V59.1351C16.6357 60.7149 17.921 62.0002 19.5008 62.0002H33.4007C33.9023 62.0002 34.3089 61.5935 34.3089 61.092C34.3089 60.5904 33.9023 60.1838 33.4007 60.1838H19.5008C18.9226 60.1838 18.4521 59.7133 18.4521 59.1351V43.4777C18.4521 42.9002 18.9202 42.4304 19.4965 42.428C19.4982 42.428 19.4997 42.4283 19.5014 42.4283L42.4989 42.4278C43.0772 42.4278 43.5476 42.8987 43.5476 43.4777V59.1351C43.5476 59.7133 43.0772 60.1838 42.4989 60.1838H37.6511C37.1495 60.1838 36.7429 60.5904 36.7429 61.092C36.7429 61.5935 37.1495 62.0002 37.6511 62.0002H42.4989C44.0787 62.0002 45.364 60.7149 45.364 59.1351V43.4777C45.364 41.897 44.0787 40.6113 42.4989 40.6113ZM20.7246 38.5138H27.7132C28.0772 38.5138 28.4098 38.6981 28.6027 39.0068L29.6055 40.6113H20.4095V38.8288C20.4096 38.6551 20.5509 38.5138 20.7246 38.5138Z" fill="#0C93F4"/>
</g>
<defs>
<clipPath id="clip0_87_591">
<rect width="62" height="62" fill="white"/>
</clipPath>
</defs>
</svg>
