<svg width="72" height="72" viewBox="0 0 72 72" fill="none" xmlns="http://www.w3.org/2000/svg">
<rect x="0.5" y="0.5" width="71" height="71" rx="7.5" fill="#EBF8FF"/>
<rect x="0.5" y="0.5" width="71" height="71" rx="7.5" stroke="#C3E1FA"/>
<path d="M28.2253 41.7924L32.3336 39.0341C32.9919 38.5924 33.9419 38.6424 34.5336 39.1508L34.8086 39.3924C35.4586 39.9508 36.5086 39.9508 37.1586 39.3924L40.6253 36.4174C41.2753 35.8591 42.3253 35.8591 42.9753 36.4174L44.3336 37.5841M33.5003 34.3337C32.5799 34.3337 31.8337 33.5875 31.8337 32.667C31.8337 31.7465 32.5799 31.0003 33.5003 31.0003C34.4208 31.0003 35.167 31.7465 35.167 32.667C35.167 33.5875 34.4208 34.3337 33.5003 34.3337ZM38.5003 44.3337C42.667 44.3337 44.3337 42.667 44.3337 38.5003V33.5003C44.3337 29.3337 42.667 27.667 38.5003 27.667H33.5003C29.3337 27.667 27.667 29.3337 27.667 33.5003V38.5003C27.667 42.667 29.3337 44.3337 33.5003 44.3337H38.5003Z" stroke="#0C93F4" stroke-linecap="round" stroke-linejoin="round"/>
</svg>
