<svg width="72" height="26" viewBox="0 0 72 26" fill="none" xmlns="http://www.w3.org/2000/svg">
<path d="M65.8672 8.6748C65.7808 7.85802 65.417 7.22205 64.7757 6.76689C64.1405 6.31173 63.3142 6.08415 62.2967 6.08415C61.5814 6.08415 60.9679 6.19327 60.456 6.41149C59.9442 6.62972 59.5527 6.92588 59.2813 7.29998C59.01 7.67408 58.8713 8.10118 58.8651 8.58128C58.8651 8.98032 58.9545 9.32636 59.1333 9.61941C59.3183 9.91246 59.5681 10.1619 59.8826 10.3676C60.1971 10.5671 60.5455 10.7355 60.9278 10.8726C61.3101 11.0098 61.6955 11.1252 62.084 11.2187L63.86 11.6676C64.5753 11.836 65.2628 12.0635 65.9226 12.3503C66.5886 12.6372 67.1837 12.9988 67.7079 13.4352C68.2382 13.8717 68.6575 14.3985 68.9658 15.0158C69.2741 15.6331 69.4283 16.3563 69.4283 17.1856C69.4283 18.3079 69.1446 19.2962 68.5773 20.1504C68.01 20.9983 67.1899 21.6623 66.1169 22.1424C65.0501 22.6163 63.7582 22.8532 62.2412 22.8532C60.7675 22.8532 59.4879 22.6225 58.4026 22.1611C57.3235 21.6998 56.4786 21.0264 55.8682 20.141C55.2638 19.2556 54.937 18.177 54.8877 16.905H58.2639C58.3132 17.5722 58.5167 18.1271 58.8743 18.5698C59.232 19.0125 59.6976 19.3429 60.271 19.5611C60.8507 19.7794 61.4982 19.8885 62.2135 19.8885C62.9596 19.8885 63.6133 19.7763 64.1744 19.5518C64.7418 19.3211 65.1858 19.0031 65.5064 18.5978C65.8271 18.1863 65.9905 17.7062 65.9966 17.1575C65.9905 16.6587 65.8456 16.2472 65.5619 15.923C65.2782 15.5926 64.8805 15.3182 64.3687 15.1C63.863 14.8755 63.2711 14.676 62.5927 14.5014L60.4375 13.9403C58.8774 13.535 57.6441 12.9209 56.7376 12.0978C55.8373 11.2686 55.3872 10.1681 55.3872 8.79639C55.3872 7.66785 55.6893 6.6796 56.2937 5.83164C56.9041 4.98367 57.7335 4.32588 58.7818 3.85825C59.8301 3.38439 61.0172 3.14746 62.343 3.14746C63.6873 3.14746 64.8651 3.38439 65.8764 3.85825C66.8939 4.32588 67.6924 4.97744 68.2721 5.81293C68.8517 6.64219 69.1508 7.59615 69.1693 8.6748H65.8672Z" fill="#3246A8"/>
<path d="M38.4532 22.5632V3.40918H45.7051C47.074 3.40918 48.2117 3.62741 49.1182 4.06386C50.0309 4.49407 50.7123 5.08328 51.1624 5.83148C51.6187 6.57969 51.8469 7.42765 51.8469 8.37537C51.8469 9.15475 51.6989 9.8219 51.4029 10.3768C51.1069 10.9255 50.7092 11.3713 50.2097 11.7142C49.7102 12.0571 49.1521 12.3034 48.5355 12.4531V12.6401C49.2076 12.6775 49.852 12.8864 50.4687 13.2667C51.0915 13.6408 51.6002 14.1708 51.9949 14.8567C52.3895 15.5425 52.5869 16.3718 52.5869 17.3444C52.5869 18.3358 52.3495 19.2274 51.8746 20.0193C51.3998 20.8049 50.6845 21.4253 49.7287 21.8804C48.7729 22.3356 47.5704 22.5632 46.1213 22.5632H38.4532ZM41.8849 19.6639H45.5756C46.8212 19.6639 47.7184 19.4238 48.2672 18.9437C48.8222 18.4574 49.0997 17.8339 49.0997 17.0732C49.0997 16.5058 48.961 15.9946 48.6835 15.5394C48.406 15.078 48.0113 14.7164 47.4995 14.4545C46.9877 14.1864 46.3772 14.0524 45.6681 14.0524H41.8849V19.6639ZM41.8849 11.5552H45.2796C45.8715 11.5552 46.405 11.4461 46.8798 11.2279C47.3546 11.0034 47.7277 10.6886 47.999 10.2833C48.2765 9.87178 48.4152 9.38544 48.4152 8.82429C48.4152 8.08232 48.1562 7.47129 47.6383 6.9912C47.1264 6.5111 46.3649 6.27105 45.3536 6.27105H41.8849V11.5552Z" fill="#3246A8"/>
<path d="M35.2088 12.9863C35.2088 15.0501 34.8265 16.8177 34.0618 18.2892C33.3034 19.7544 32.2674 20.8767 30.9539 21.6561C29.6466 22.4355 28.1636 22.8252 26.5048 22.8252C24.846 22.8252 23.3599 22.4355 22.0464 21.6561C20.7391 20.8705 19.7031 19.7451 18.9385 18.2799C18.18 16.8084 17.8008 15.0439 17.8008 12.9863C17.8008 10.9225 18.18 9.15802 18.9385 7.69279C19.7031 6.22133 20.7391 5.0959 22.0464 4.31653C23.3599 3.53715 24.846 3.14746 26.5048 3.14746C28.1636 3.14746 29.6466 3.53715 30.9539 4.31653C32.2674 5.0959 33.3034 6.22133 34.0618 7.69279C34.8265 9.15802 35.2088 10.9225 35.2088 12.9863ZM31.7587 12.9863C31.7587 11.5336 31.5336 10.3084 31.0834 9.31078C30.6394 8.30694 30.0228 7.54939 29.2335 7.03811C28.4442 6.52061 27.5346 6.26185 26.5048 6.26185C25.475 6.26185 24.5654 6.52061 23.7761 7.03811C22.9868 7.54939 22.3671 8.30694 21.9169 9.31078C21.4729 10.3084 21.2509 11.5336 21.2509 12.9863C21.2509 14.4391 21.4729 15.6674 21.9169 16.6712C22.3671 17.6688 22.9868 18.4264 23.7761 18.9439C24.5654 19.4552 25.475 19.7108 26.5048 19.7108C27.5346 19.7108 28.4442 19.4552 29.2335 18.9439C30.0228 18.4264 30.6394 17.6688 31.0834 16.6712C31.5336 15.6674 31.7587 14.4391 31.7587 12.9863Z" fill="#3246A8"/>
<path d="M11.1552 3.40918H14.5591V16.8768C14.5529 18.1114 14.2939 19.1744 13.7821 20.066C13.2703 20.9514 12.555 21.6341 11.6362 22.1142C10.7235 22.5881 9.6598 22.825 8.445 22.825C7.33503 22.825 6.33606 22.6255 5.44808 22.2265C4.56627 21.8212 3.86638 21.2226 3.34839 20.4308C2.8304 19.6389 2.57141 18.6538 2.57141 17.4754H5.98457C5.99074 17.9929 6.10173 18.4387 6.31756 18.8128C6.53955 19.1869 6.8448 19.4737 7.23329 19.6732C7.62178 19.8727 8.06885 19.9725 8.5745 19.9725C9.12332 19.9725 9.58889 19.8572 9.97121 19.6265C10.3535 19.3895 10.6434 19.0404 10.8407 18.579C11.0442 18.1176 11.149 17.5502 11.1552 16.8768V3.40918Z" fill="#3246A8"/>
</svg>
