<svg width="72" height="72" viewBox="0 0 72 72" fill="none" xmlns="http://www.w3.org/2000/svg">
<g clip-path="url(#clip0_1_4611)">
<path fill-rule="evenodd" clip-rule="evenodd" d="M15.9046 66.8757H31.3664C31.9489 66.8757 32.421 67.3479 32.421 67.9305C32.421 68.5131 31.9489 68.9852 31.3663 68.9852H15.9045C9.66787 68.9852 4.59396 63.9113 4.59396 57.6747V17.4839C4.59396 11.248 9.66787 6.1748 15.9045 6.1748H25.6948C25.427 7.20589 25.0643 7.65278 24.1664 8.28405H15.9046C10.8311 8.28405 6.70349 12.4111 6.70349 17.4838V57.6746C6.70349 62.7481 10.8311 66.8757 15.9046 66.8757ZM50.914 6.1748H56.0952C62.3318 6.1748 67.4057 11.248 67.406 17.4841V57.6748C67.406 63.9114 62.332 68.9854 56.0954 68.9854H41.8113L43.0258 70.1999C43.4377 70.6118 43.4377 71.2795 43.0258 71.6916C42.8198 71.8974 42.5498 72.0004 42.28 72.0004C42.0101 72.0004 41.7401 71.8974 41.5341 71.6916L38.5292 68.6867C38.1141 68.3105 38.1045 67.5721 38.5202 67.1827L41.5341 64.1688C41.946 63.757 42.6137 63.757 43.0257 64.1688C43.4376 64.5807 43.4376 65.2484 43.0257 65.6604L41.8103 66.8758H56.0952C61.1686 66.8758 65.2963 62.7482 65.2963 57.6747V17.4839C65.2963 12.4113 61.1686 8.28419 56.0952 8.28419H50.914C50.3313 8.28419 49.8593 7.81211 49.8593 7.2295C49.8593 6.64688 50.3313 6.1748 50.914 6.1748Z" fill="#0C93F4"/>
<path fill-rule="evenodd" clip-rule="evenodd" d="M22.939 12.5294C22.939 15.7694 24.3893 17.368 25.351 18.0719C25.1872 19.2346 25.514 20.3007 26.3056 21.1351C26.6259 21.473 26.973 21.7198 27.2635 21.891C27.2907 22.1102 27.3292 22.3199 27.3769 22.522H25.5599C23.9128 22.522 22.573 23.8619 22.573 25.5089V28.2009C22.573 28.7835 23.045 29.2555 23.6277 29.2555C24.2103 29.2555 24.6824 28.7835 24.6824 28.2009V25.5089C24.6824 25.0251 25.0761 24.6314 25.5599 24.6314H28.5384C29.6311 25.7332 31.4926 25.9163 32.583 25.7752L32.8077 26.8496C33.0177 27.8532 33.9141 28.5815 34.9394 28.5815C34.9528 28.5815 34.9659 28.5806 34.979 28.5797C34.9843 28.5793 34.9896 28.5789 34.9949 28.5786C34.9994 28.5784 35.004 28.5781 35.0085 28.578V39.8694H25.5599C25.0761 39.8694 24.6824 39.4758 24.6824 38.992V33.1301C24.6824 32.5475 24.2103 32.0754 23.6277 32.0754C23.045 32.0754 22.573 32.5475 22.573 33.1301V38.992C22.573 40.6389 23.9128 41.9788 25.5599 41.9788H46.5651C48.2121 41.9788 49.552 40.6389 49.552 38.992V25.5089C49.552 23.8619 48.2121 22.522 46.5651 22.522H44.7482C44.7959 22.3199 44.8344 22.1101 44.8616 21.891C45.1521 21.7198 45.4992 21.473 45.8195 21.1351C46.6111 20.3005 46.9379 19.2344 46.7741 18.0719C47.7358 17.368 49.1861 15.7694 49.1861 12.5294C49.1861 9.107 47.5423 7.59218 46.5531 6.9903C46.4893 3.44766 42.4271 -0.000757943 38.9145 0.0126015C37.8646 -0.0755707 36.8061 0.310728 36.0625 1.06406C35.3188 0.310868 34.2609 -0.0765551 33.2106 0.0126015C31.6519 0.144368 29.4282 0.67987 27.6856 2.48367C26.4331 3.77996 25.9099 5.15444 25.6947 6.17453C23.94 7.79192 22.939 9.89667 22.939 12.5294ZM33.3883 2.11453C32.1895 2.21578 30.4905 2.61628 29.2026 3.94927C27.2637 6.10985 26.9294 8.74854 29.3065 11.2188C29.7482 11.5986 29.7982 12.2645 29.4183 12.706C29.2098 12.9485 28.9149 13.0729 28.6185 13.0729C28.3748 13.0729 28.1301 12.9891 27.9309 12.8178C26.7593 11.8098 26.1655 10.5605 25.8643 9.54167C25.4382 10.1234 25.0481 11.0575 25.0481 12.5298C25.0481 15.671 26.7726 16.5071 26.9314 16.5773C27.4763 16.7655 27.7349 17.3453 27.5529 17.8937C27.3029 18.6477 27.3929 19.2167 27.836 19.684C28.1815 20.0484 28.6141 20.2157 28.6182 20.2173C29.0284 20.3615 29.3078 20.7428 29.3222 21.1775C29.2185 23.8583 31.8375 23.9212 33.4041 23.5083C33.597 23.5083 33.7886 23.5608 33.9556 23.6633C34.2034 23.815 34.3795 24.0618 34.439 24.3462L34.8722 26.4179C34.8788 26.4495 34.9072 26.4724 34.9394 26.4724C34.9771 26.4724 35.0078 26.4418 35.0078 26.4039V15.9145C34.5581 15.9903 34.1986 16.2114 33.9065 16.586C33.5121 17.0919 33.3942 17.6874 33.3931 17.6933C33.3033 18.2049 32.8594 18.562 32.3577 18.562C32.2968 18.562 32.2348 18.5566 32.1726 18.5458C31.5989 18.445 31.2162 17.8943 31.3171 17.3205C31.3355 17.2153 31.5166 16.2674 32.1778 15.375C32.8751 14.4343 33.8554 13.8939 35.0079 13.7949V3.62049C35.0286 2.76985 34.2374 2.02088 33.3883 2.11453ZM37.6081 2.50266C37.9182 2.21677 38.3239 2.07867 38.7369 2.11453C43.2562 2.33095 46.6614 7.45212 42.8181 11.2185C42.3764 11.5983 42.3265 12.2643 42.7063 12.7057C42.9149 12.9483 43.2098 13.0726 43.5062 13.0726C43.7498 13.0726 43.9946 12.9887 44.1937 12.8175C45.366 11.8091 45.9597 10.559 46.2608 9.53984C46.7953 10.2669 47.0766 11.2912 47.0766 12.5295C47.0766 15.6707 45.3521 16.5069 45.1933 16.577C44.6484 16.7652 44.3898 17.345 44.5717 17.8934C45.0987 19.4822 43.8825 20.0761 43.5065 20.217C43.0963 20.3613 42.8169 20.7425 42.8025 21.1772C42.9377 23.6598 40.4551 23.9872 39.002 23.546C38.7213 23.4678 38.4199 23.5086 38.1705 23.6605C37.921 23.8121 37.7456 24.0603 37.6859 24.3459L37.2524 26.4177C37.2458 26.4492 37.2177 26.4721 37.1855 26.4721C37.1489 26.4721 37.1196 26.443 37.1177 26.407L37.117 15.9145C37.5667 15.9903 37.9262 16.2114 38.2184 16.5857C38.6063 17.083 38.7266 17.6669 38.7317 17.6922C38.8245 18.2004 39.2678 18.5575 39.768 18.5575C39.8286 18.5575 39.89 18.5523 39.9518 18.5414C40.5254 18.4406 40.9089 17.894 40.808 17.3201C40.7896 17.2149 40.6085 16.2669 39.9471 15.3745C39.25 14.4339 38.2695 13.8933 37.117 13.7943V3.62007C37.1172 3.19046 37.2915 2.79361 37.6081 2.50266ZM47.4426 38.9923V25.5091C47.4426 25.0254 47.0488 24.6316 46.565 24.6315H43.5865C42.4945 25.733 40.6324 25.9158 39.542 25.7755L39.3173 26.8496C39.1076 27.8531 38.2111 28.5817 37.1857 28.5817C37.1726 28.5817 37.1597 28.5808 37.1467 28.5799C37.1371 28.5792 37.1276 28.5786 37.1179 28.5783V39.8697H46.5651C47.0488 39.8697 47.4426 39.4761 47.4426 38.9923ZM29.5951 31.8826H27.4265C26.8439 31.8826 26.3718 31.4105 26.3718 30.8279C26.3718 30.2453 26.8439 29.7732 27.4265 29.7732H29.5951C30.1777 29.7732 30.6498 30.2453 30.6498 30.8279C30.6498 31.4105 30.1777 31.8826 29.5951 31.8826ZM32.2639 35.4752H27.4265C26.8439 35.4752 26.3718 35.0031 26.3718 34.4205C26.3718 33.8379 26.8439 33.3658 27.4265 33.3658H32.2639C32.8465 33.3658 33.3186 33.8379 33.3186 34.4205C33.3186 35.0031 32.8465 35.4752 32.2639 35.4752ZM44.6989 33.3658H39.8615C39.2789 33.3658 38.8069 33.8379 38.8069 34.4205C38.8069 35.0031 39.2789 35.4752 39.8615 35.4752H44.6989C45.2815 35.4752 45.7536 35.0031 45.7536 34.4205C45.7536 33.8379 45.2815 33.3658 44.6989 33.3658ZM38.8069 30.8279C38.8069 30.2453 39.2789 29.7732 39.8615 29.7732H44.6989C45.2815 29.7732 45.7536 30.2453 45.7536 30.8279C45.7536 31.4105 45.2815 31.8826 44.6989 31.8826H39.8615C39.2789 31.8826 38.8069 31.4105 38.8069 30.8279ZM31.0827 50.9649C31.0827 52.9102 30.2408 54.7598 28.7729 56.0398C28.2473 56.4981 27.9456 57.1569 27.9458 57.847V57.8475V57.8481V59.9173C27.9458 61.9004 26.3322 63.5139 24.3491 63.5139C22.366 63.5139 20.7525 61.9005 20.7525 59.9173V57.8481C20.7525 57.163 20.4398 56.494 19.8944 56.0127C18.3745 54.6712 17.5455 52.7393 17.6201 50.7121C17.7518 47.1237 20.7645 44.2312 24.351 44.2312L24.4228 44.2315C28.0951 44.2711 31.0827 47.2918 31.0827 50.9649ZM24.3507 46.3406C21.8872 46.3406 19.8186 48.3261 19.7281 50.7896C19.6769 52.1824 20.2461 53.5097 21.2901 54.4312C22.0124 55.0686 22.5119 55.8962 22.7331 56.7934H25.9621C26.1797 55.8936 26.673 55.0723 27.3868 54.4499C28.3951 53.5706 28.9733 52.3004 28.9733 50.9649C28.9733 48.4424 26.9219 46.368 24.4001 46.3409C24.3836 46.3406 24.367 46.3406 24.3507 46.3406ZM24.349 61.4045C25.1691 61.4045 25.8363 60.7374 25.8363 59.9173V58.9028H22.8617V59.9173C22.8617 60.7374 23.5289 61.4045 24.349 61.4045ZM57.566 47.4861V57.162C57.566 58.9568 56.1059 60.4171 54.3111 60.4169H38.115C36.3203 60.4169 34.8601 58.9568 34.8601 57.162V47.4861C34.8601 45.6915 36.3202 44.2312 38.115 44.2312H54.3111C56.1058 44.2312 57.566 45.6913 57.566 47.4861ZM36.9693 47.4861V57.162C36.9693 57.7937 37.4833 58.3077 38.115 58.3075H54.3111C54.9428 58.3075 55.4567 57.7937 55.4567 57.162V47.4861C55.4567 46.8544 54.9428 46.3406 54.3111 46.3406H38.1149C37.4832 46.3406 36.9693 46.8544 36.9693 47.4861ZM49.0362 50.6405L45.9076 48.4721C45.3055 48.0548 44.5282 48.0066 43.879 48.3463C43.23 48.6862 42.8269 49.3524 42.8269 50.085V54.4221C42.8269 55.1547 43.23 55.8209 43.8792 56.1608C44.1665 56.3111 44.4789 56.3856 44.7901 56.3856C45.1821 56.3856 45.5722 56.2676 45.9076 56.035L49.0361 53.8667C49.5651 53.5003 49.8808 52.8971 49.8808 52.2538C49.8809 51.6104 49.5652 51.0071 49.0362 50.6405ZM44.9363 54.1419V50.3654L47.6606 52.2538L44.9363 54.1419Z" fill="#2D2E2E"/>
</g>
<defs>
<clipPath id="clip0_1_4611">
<rect width="72" height="72" fill="white"/>
</clipPath>
</defs>
</svg>
